<svg xmlns="http://www.w3.org/2000/svg" viewBox="0 -15 45 60">
  <defs>
    <linearGradient id="bgrad" x1="0%" y1="0%" x2="100%" y2="100%">
      <stop offset="0%" stop-color="#6b5a4a"/>
      <stop offset="50%" stop-color="#3d2e20"/>
      <stop offset="100%" stop-color="#1a1008"/>
    </linearGradient>
    <filter id="shadow" x="-20%" y="-20%" width="140%" height="140%">
      <feDropShadow dx="1" dy="2" stdDeviation="1.5" flood-opacity="0.5"/>
    </filter>
  </defs>
  <g transform="translate(0, -15)">
  <ellipse cx="22.5" cy="39" rx="12" ry="3" fill="url(#bgrad)" stroke="#000" stroke-width="1" filter="url(#shadow)"/>
  <path d="M 17 36 Q 17 28 19 22 Q 20 18 22.5 18 Q 25 18 26 22 Q 28 28 28 36 Z" fill="url(#bgrad)" stroke="#000" stroke-width="1"/>
  <ellipse cx="22.5" cy="18" rx="7" ry="2" fill="url(#bgrad)" stroke="#000" stroke-width="1"/>
  <circle cx="15.5" cy="14" r="2" fill="url(#bgrad)" stroke="#000" stroke-width="1"/>
  <circle cx="19.5" cy="11" r="2" fill="url(#bgrad)" stroke="#000" stroke-width="1"/>
  <circle cx="22.5" cy="9" r="2.5" fill="url(#bgrad)" stroke="#000" stroke-width="1"/>
  <circle cx="25.5" cy="11" r="2" fill="url(#bgrad)" stroke="#000" stroke-width="1"/>
  <circle cx="29.5" cy="14" r="2" fill="url(#bgrad)" stroke="#000" stroke-width="1"/>
  <path d="M 15.5 14 L 17.5 18" fill="none" stroke="#000" stroke-width="1"/>
  <path d="M 19.5 11 L 20.5 18" fill="none" stroke="#000" stroke-width="1"/>
  <path d="M 25.5 11 L 24.5 18" fill="none" stroke="#000" stroke-width="1"/>
  <path d="M 29.5 14 L 27.5 18" fill="none" stroke="#000" stroke-width="1"/>
  </g>
</svg>
